<?xml version="1.0" encoding="UTF-8"?>
<svg xmlns="http://www.w3.org/2000/svg" viewBox="0 0 1024 1024" role="img" aria-labelledby="title desc">
  <title id="title">IwaraTV Iwara-style mark</title>
  <desc id="desc">An original Iwara-style green app icon with a white angled diamond ribbon, dark center cutout, and compact play mark.</desc>
  <defs>
    <linearGradient id="bg" x1="128" y1="64" x2="896" y2="960" gradientUnits="userSpaceOnUse">
      <stop offset="0" stop-color="#597d5b"/>
      <stop offset=".56" stop-color="#496d4e"/>
      <stop offset="1" stop-color="#385642"/>
    </linearGradient>
    <linearGradient id="cutout" x1="384" y1="296" x2="684" y2="716" gradientUnits="userSpaceOnUse">
      <stop offset="0" stop-color="#243a2f"/>
      <stop offset="1" stop-color="#182920"/>
    </linearGradient>
    <filter id="soft-shadow" x="0" y="0" width="1024" height="1024" color-interpolation-filters="sRGB">
      <feDropShadow dx="28" dy="34" stdDeviation="20" flood-color="#17251c" flood-opacity=".32"/>
    </filter>
  </defs>
  <rect x="64" y="64" width="896" height="896" rx="196" fill="url(#bg)"/>
  <path d="M424 108 578 214 926 512 578 810 424 916 92 512Z" fill="#f8faf6" filter="url(#soft-shadow)"/>
  <path d="M540 288 760 512 540 736 344 512Z" fill="url(#cutout)"/>
  <path d="M420 382 420 642 656 512Z" fill="#f8faf6"/>
  <path d="M420 382 420 642 456 622 456 402Z" fill="#eef5ee"/>
  <path d="M160 512 438 122 424 108 92 512 424 916 438 902Z" fill="#ffffff" opacity=".24"/>
</svg>
